<svg width="313" height="36" viewBox="0 0 313 36" fill="none" xmlns="http://www.w3.org/2000/svg">
<path d="M0 4C0 1.79086 1.79086 0 4 0H309C311.209 0 313 1.79086 313 4V32C313 34.2091 311.209 36 309 36H3.99999C1.79086 36 0 34.2091 0 32V4Z" fill="#F5F5F5"/>
<g clip-path="url(#clip0_3161_1566)">
<path d="M102 25.5C106.142 25.5 109.5 22.1421 109.5 18C109.5 13.8579 106.142 10.5 102 10.5C97.8579 10.5 94.5 13.8579 94.5 18C94.5 22.1421 97.8579 25.5 102 25.5Z" stroke="#0D0C0C" stroke-width="1.5" stroke-linecap="round" stroke-linejoin="round"/>
<path d="M98.875 18.0001C98.875 20.9267 99.9164 23.5407 101.553 25.304C101.61 25.3658 101.679 25.4152 101.756 25.449C101.833 25.4828 101.916 25.5002 102 25.5002C102.084 25.5002 102.167 25.4828 102.244 25.449C102.321 25.4152 102.39 25.3658 102.447 25.304C104.084 23.5407 105.125 20.9267 105.125 18.0001C105.125 15.0735 104.084 12.4595 102.447 10.6962C102.39 10.6343 102.321 10.585 102.244 10.5512C102.167 10.5174 102.084 10.5 102 10.5C101.916 10.5 101.833 10.5174 101.756 10.5512C101.679 10.585 101.61 10.6343 101.553 10.6962C99.9164 12.4595 98.875 15.0735 98.875 18.0001Z" stroke="#0D0C0C" stroke-width="1.5" stroke-linecap="round" stroke-linejoin="round"/>
<path d="M94.9265 15.5H109.073" stroke="#0D0C0C" stroke-width="1.5" stroke-linecap="round" stroke-linejoin="round"/>
<path d="M94.9265 20.5H109.073" stroke="#0D0C0C" stroke-width="1.5" stroke-linecap="round" stroke-linejoin="round"/>
</g>
<path d="M126.516 16.084C126.516 16.78 126.276 17.36 125.796 17.824C125.324 18.28 124.6 18.508 123.624 18.508H122.016V22H120.924V13.636H123.624C124.568 13.636 125.284 13.864 125.772 14.32C126.268 14.776 126.516 15.364 126.516 16.084ZM123.624 17.608C124.232 17.608 124.68 17.476 124.968 17.212C125.256 16.948 125.4 16.572 125.4 16.084C125.4 15.052 124.808 14.536 123.624 14.536H122.016V17.608H123.624ZM130.741 22.108C130.125 22.108 129.565 21.968 129.061 21.688C128.565 21.408 128.173 21.012 127.885 20.5C127.605 19.98 127.465 19.38 127.465 18.7C127.465 18.028 127.609 17.436 127.897 16.924C128.193 16.404 128.593 16.008 129.097 15.736C129.601 15.456 130.165 15.316 130.789 15.316C131.413 15.316 131.977 15.456 132.481 15.736C132.985 16.008 133.381 16.4 133.669 16.912C133.965 17.424 134.113 18.02 134.113 18.7C134.113 19.38 133.961 19.98 133.657 20.5C133.361 21.012 132.957 21.408 132.445 21.688C131.933 21.968 131.365 22.108 130.741 22.108ZM130.741 21.148C131.133 21.148 131.501 21.056 131.845 20.872C132.189 20.688 132.465 20.412 132.673 20.044C132.889 19.676 132.997 19.228 132.997 18.7C132.997 18.172 132.893 17.724 132.685 17.356C132.477 16.988 132.205 16.716 131.869 16.54C131.533 16.356 131.169 16.264 130.777 16.264C130.377 16.264 130.009 16.356 129.673 16.54C129.345 16.716 129.081 16.988 128.881 17.356C128.681 17.724 128.581 18.172 128.581 18.7C128.581 19.236 128.677 19.688 128.869 20.056C129.069 20.424 129.333 20.7 129.661 20.884C129.989 21.06 130.349 21.148 130.741 21.148ZM136.641 16.492C136.833 16.116 137.105 15.824 137.457 15.616C137.817 15.408 138.253 15.304 138.765 15.304V16.432H138.477C137.253 16.432 136.641 17.096 136.641 18.424V22H135.549V15.424H136.641V16.492ZM141.358 16.324V20.2C141.358 20.52 141.426 20.748 141.562 20.884C141.698 21.012 141.934 21.076 142.27 21.076H143.074V22H142.09C141.482 22 141.026 21.86 140.722 21.58C140.418 21.3 140.266 20.84 140.266 20.2V16.324H139.414V15.424H140.266V13.768H141.358V15.424H143.074V16.324H141.358ZM150.229 15.424V22H149.137V21.028C148.929 21.364 148.637 21.628 148.261 21.82C147.893 22.004 147.485 22.096 147.037 22.096C146.525 22.096 146.065 21.992 145.657 21.784C145.249 21.568 144.925 21.248 144.685 20.824C144.453 20.4 144.337 19.884 144.337 19.276V15.424H145.417V19.132C145.417 19.78 145.581 20.28 145.909 20.632C146.237 20.976 146.685 21.148 147.253 21.148C147.837 21.148 148.297 20.968 148.633 20.608C148.969 20.248 149.137 19.724 149.137 19.036V15.424H150.229ZM154.784 15.316C155.352 15.316 155.848 15.44 156.272 15.688C156.704 15.936 157.024 16.248 157.232 16.624V15.424H158.336V22.144C158.336 22.744 158.208 23.276 157.952 23.74C157.696 24.212 157.328 24.58 156.848 24.844C156.376 25.108 155.824 25.24 155.192 25.24C154.328 25.24 153.608 25.036 153.032 24.628C152.456 24.22 152.116 23.664 152.012 22.96H153.092C153.212 23.36 153.46 23.68 153.836 23.92C154.212 24.168 154.664 24.292 155.192 24.292C155.792 24.292 156.28 24.104 156.656 23.728C157.04 23.352 157.232 22.824 157.232 22.144V20.764C157.016 21.148 156.696 21.468 156.272 21.724C155.848 21.98 155.352 22.108 154.784 22.108C154.2 22.108 153.668 21.964 153.188 21.676C152.716 21.388 152.344 20.984 152.072 20.464C151.8 19.944 151.664 19.352 151.664 18.688C151.664 18.016 151.8 17.428 152.072 16.924C152.344 16.412 152.716 16.016 153.188 15.736C153.668 15.456 154.2 15.316 154.784 15.316ZM157.232 18.7C157.232 18.204 157.132 17.772 156.932 17.404C156.732 17.036 156.46 16.756 156.116 16.564C155.78 16.364 155.408 16.264 155 16.264C154.592 16.264 154.22 16.36 153.884 16.552C153.548 16.744 153.28 17.024 153.08 17.392C152.88 17.76 152.78 18.192 152.78 18.688C152.78 19.192 152.88 19.632 153.08 20.008C153.28 20.376 153.548 20.66 153.884 20.86C154.22 21.052 154.592 21.148 155 21.148C155.408 21.148 155.78 21.052 156.116 20.86C156.46 20.66 156.732 20.376 156.932 20.008C157.132 19.632 157.232 19.196 157.232 18.7ZM166.014 15.424V22H164.922V21.028C164.714 21.364 164.422 21.628 164.046 21.82C163.678 22.004 163.27 22.096 162.822 22.096C162.31 22.096 161.85 21.992 161.442 21.784C161.034 21.568 160.71 21.248 160.47 20.824C160.238 20.4 160.122 19.884 160.122 19.276V15.424H161.202V19.132C161.202 19.78 161.366 20.28 161.694 20.632C162.022 20.976 162.47 21.148 163.038 21.148C163.622 21.148 164.082 20.968 164.418 20.608C164.754 20.248 164.922 19.724 164.922 19.036V15.424H166.014ZM173.858 18.46C173.858 18.668 173.846 18.888 173.822 19.12H168.566C168.606 19.768 168.826 20.276 169.226 20.644C169.634 21.004 170.126 21.184 170.702 21.184C171.174 21.184 171.566 21.076 171.878 20.86C172.198 20.636 172.422 20.34 172.55 19.972H173.726C173.55 20.604 173.198 21.12 172.67 21.52C172.142 21.912 171.486 22.108 170.702 22.108C170.078 22.108 169.518 21.968 169.022 21.688C168.534 21.408 168.15 21.012 167.87 20.5C167.59 19.98 167.45 19.38 167.45 18.7C167.45 18.02 167.586 17.424 167.858 16.912C168.13 16.4 168.51 16.008 168.998 15.736C169.494 15.456 170.062 15.316 170.702 15.316C171.326 15.316 171.878 15.452 172.358 15.724C172.838 15.996 173.206 16.372 173.462 16.852C173.726 17.324 173.858 17.86 173.858 18.46ZM172.73 18.232C172.73 17.816 172.638 17.46 172.454 17.164C172.27 16.86 172.018 16.632 171.698 16.48C171.386 16.32 171.038 16.24 170.654 16.24C170.102 16.24 169.63 16.416 169.238 16.768C168.854 17.12 168.634 17.608 168.578 18.232H172.73ZM170.666 13.816L168.998 14.836V13.972L170.666 12.976L172.322 13.972V14.836L170.666 13.816ZM177.627 22.108C177.123 22.108 176.671 22.024 176.271 21.856C175.871 21.68 175.555 21.44 175.323 21.136C175.091 20.824 174.963 20.468 174.939 20.068H176.067C176.099 20.396 176.251 20.664 176.523 20.872C176.803 21.08 177.167 21.184 177.615 21.184C178.031 21.184 178.359 21.092 178.599 20.908C178.839 20.724 178.959 20.492 178.959 20.212C178.959 19.924 178.831 19.712 178.575 19.576C178.319 19.432 177.923 19.292 177.387 19.156C176.899 19.028 176.499 18.9 176.187 18.772C175.883 18.636 175.619 18.44 175.395 18.184C175.179 17.92 175.071 17.576 175.071 17.152C175.071 16.816 175.171 16.508 175.371 16.228C175.571 15.948 175.855 15.728 176.223 15.568C176.591 15.4 177.011 15.316 177.483 15.316C178.211 15.316 178.799 15.5 179.247 15.868C179.695 16.236 179.935 16.74 179.967 17.38H178.875C178.851 17.036 178.711 16.76 178.455 16.552C178.207 16.344 177.871 16.24 177.447 16.24C177.055 16.24 176.743 16.324 176.511 16.492C176.279 16.66 176.163 16.88 176.163 17.152C176.163 17.368 176.231 17.548 176.367 17.692C176.511 17.828 176.687 17.94 176.895 18.028C177.111 18.108 177.407 18.2 177.783 18.304C178.255 18.432 178.639 18.56 178.935 18.688C179.231 18.808 179.483 18.992 179.691 19.24C179.907 19.488 180.019 19.812 180.027 20.212C180.027 20.572 179.927 20.896 179.727 21.184C179.527 21.472 179.243 21.7 178.875 21.868C178.515 22.028 178.099 22.108 177.627 22.108ZM182.697 20.488L181.353 23.716H180.621L181.497 20.488H182.697ZM191.335 17.692C191.639 17.74 191.915 17.864 192.163 18.064C192.419 18.264 192.619 18.512 192.763 18.808C192.915 19.104 192.991 19.42 192.991 19.756C192.991 20.18 192.883 20.564 192.667 20.908C192.451 21.244 192.135 21.512 191.719 21.712C191.311 21.904 190.827 22 190.267 22H187.147V13.636H190.147C190.715 13.636 191.199 13.732 191.599 13.924C191.999 14.108 192.299 14.36 192.499 14.68C192.699 15 192.799 15.36 192.799 15.76C192.799 16.256 192.663 16.668 192.391 16.996C192.127 17.316 191.775 17.548 191.335 17.692ZM188.239 17.248H190.075C190.587 17.248 190.983 17.128 191.263 16.888C191.543 16.648 191.683 16.316 191.683 15.892C191.683 15.468 191.543 15.136 191.263 14.896C190.983 14.656 190.579 14.536 190.051 14.536H188.239V17.248ZM190.171 21.1C190.715 21.1 191.139 20.972 191.443 20.716C191.747 20.46 191.899 20.104 191.899 19.648C191.899 19.184 191.739 18.82 191.419 18.556C191.099 18.284 190.671 18.148 190.135 18.148H188.239V21.1H190.171ZM198.91 22L196.918 18.58H195.598V22H194.506V13.636H197.206C197.838 13.636 198.37 13.744 198.802 13.96C199.242 14.176 199.57 14.468 199.786 14.836C200.002 15.204 200.11 15.624 200.11 16.096C200.11 16.672 199.942 17.18 199.606 17.62C199.278 18.06 198.782 18.352 198.118 18.496L200.218 22H198.91ZM195.598 17.704H197.206C197.798 17.704 198.242 17.56 198.538 17.272C198.834 16.976 198.982 16.584 198.982 16.096C198.982 15.6 198.834 15.216 198.538 14.944C198.25 14.672 197.806 14.536 197.206 14.536H195.598V17.704Z" fill="#0D0C0C"/>
<g clip-path="url(#clip1_3161_1566)">
<path d="M213.5 14.25L217.25 18L213.5 21.75" fill="#0D0C0C"/>
</g>
<defs>
<clipPath id="clip0_3161_1566">
<rect width="20" height="20" fill="white" transform="translate(92 8)"/>
</clipPath>
<clipPath id="clip1_3161_1566">
<rect width="12" height="12" fill="white" transform="translate(209 12)"/>
</clipPath>
</defs>
</svg>
