<svg width="238" height="32" viewBox="0 0 238 32" fill="none" xmlns="http://www.w3.org/2000/svg">
<path d="M26.45 20.5V11.7727H29.5608C30.2398 11.7727 30.8023 11.8963 31.2483 12.1435C31.6943 12.3906 32.0281 12.7287 32.2497 13.1577C32.4713 13.5838 32.5821 14.0639 32.5821 14.598C32.5821 15.1349 32.4699 15.6179 32.2455 16.0469C32.0239 16.473 31.6887 16.8111 31.2398 17.0611C30.7938 17.3082 30.2327 17.4318 29.5566 17.4318H27.4173V16.3153H29.4372C29.8662 16.3153 30.2142 16.2415 30.4813 16.0938C30.7483 15.9432 30.9443 15.7386 31.0693 15.4801C31.1943 15.2216 31.2568 14.9276 31.2568 14.598C31.2568 14.2685 31.1943 13.9759 31.0693 13.7202C30.9443 13.4645 30.7469 13.2642 30.477 13.1193C30.21 12.9744 29.8577 12.902 29.4202 12.902H27.7668V20.5H26.45ZM34.1258 20.5V11.7727H37.2366C37.9156 11.7727 38.4781 11.8963 38.9241 12.1435C39.3701 12.3906 39.7039 12.7287 39.9255 13.1577C40.1471 13.5838 40.2579 14.0639 40.2579 14.598C40.2579 15.1349 40.1457 15.6179 39.9213 16.0469C39.6997 16.473 39.3644 16.8111 38.9156 17.0611C38.4695 17.3082 37.9085 17.4318 37.2323 17.4318H35.0931V16.3153H37.113C37.542 16.3153 37.89 16.2415 38.157 16.0938C38.4241 15.9432 38.6201 15.7386 38.7451 15.4801C38.8701 15.2216 38.9326 14.9276 38.9326 14.598C38.9326 14.2685 38.8701 13.9759 38.7451 13.7202C38.6201 13.4645 38.4227 13.2642 38.1528 13.1193C37.8857 12.9744 37.5335 12.902 37.096 12.902H35.4426V20.5H34.1258Z" fill="#0D0C0C"/>
<path d="M64.6209 20.5V11.7727H67.7317C68.4107 11.7727 68.9732 11.8963 69.4192 12.1435C69.8652 12.3906 70.199 12.7287 70.4206 13.1577C70.6422 13.5838 70.753 14.0639 70.753 14.598C70.753 15.1349 70.6408 15.6179 70.4164 16.0469C70.1948 16.473 69.8596 16.8111 69.4107 17.0611C68.9647 17.3082 68.4036 17.4318 67.7275 17.4318H65.5882V16.3153H67.6081C68.0371 16.3153 68.3851 16.2415 68.6522 16.0938C68.9192 15.9432 69.1152 15.7386 69.2402 15.4801C69.3652 15.2216 69.4277 14.9276 69.4277 14.598C69.4277 14.2685 69.3652 13.9759 69.2402 13.7202C69.1152 13.4645 68.9178 13.2642 68.6479 13.1193C68.3809 12.9744 68.0286 12.902 67.5911 12.902H65.9377V20.5H64.6209Z" fill="#0D0C0C"/>
<path d="M97.408 11.7727H99.006L101.784 18.5568H101.887L104.665 11.7727H106.263V20.5H105.01V14.1847H104.929L102.355 20.4872H101.316L98.7418 14.1804H98.6609V20.5H97.408V11.7727Z" fill="#0D0C0C"/>
<path d="M138.538 14.5298C138.456 14.2713 138.345 14.0398 138.206 13.8352C138.069 13.6278 137.906 13.4517 137.715 13.3068C137.525 13.1591 137.308 13.0469 137.063 12.9702C136.822 12.8935 136.556 12.8551 136.267 12.8551C135.775 12.8551 135.332 12.9815 134.937 13.2344C134.542 13.4872 134.23 13.858 134 14.3466C133.772 14.8324 133.659 15.4276 133.659 16.1321C133.659 16.8395 133.774 17.4375 134.004 17.9261C134.234 18.4148 134.549 18.7855 134.95 19.0384C135.35 19.2912 135.806 19.4176 136.318 19.4176C136.792 19.4176 137.206 19.321 137.558 19.1278C137.913 18.9347 138.187 18.6619 138.38 18.3097C138.576 17.9545 138.674 17.5369 138.674 17.0568L139.015 17.1207H136.518V16.0341H139.948V17.027C139.948 17.7599 139.792 18.3963 139.48 18.9361C139.17 19.473 138.741 19.8878 138.193 20.1804C137.647 20.473 137.022 20.6193 136.318 20.6193C135.528 20.6193 134.835 20.4375 134.238 20.0739C133.644 19.7102 133.181 19.1946 132.849 18.527C132.517 17.8565 132.35 17.0611 132.35 16.1406C132.35 15.4446 132.447 14.8196 132.64 14.2656C132.833 13.7116 133.105 13.2415 133.454 12.8551C133.806 12.4659 134.22 12.169 134.694 11.9645C135.171 11.7571 135.693 11.6534 136.258 11.6534C136.73 11.6534 137.169 11.723 137.575 11.8622C137.984 12.0014 138.348 12.1989 138.666 12.4545C138.987 12.7102 139.252 13.0142 139.463 13.3665C139.673 13.7159 139.815 14.1037 139.889 14.5298H138.538Z" fill="#0D0C0C"/>
<path d="M168.377 14.5298C168.294 14.2713 168.184 14.0398 168.044 13.8352C167.908 13.6278 167.745 13.4517 167.554 13.3068C167.364 13.1591 167.147 13.0469 166.902 12.9702C166.661 12.8935 166.395 12.8551 166.105 12.8551C165.614 12.8551 165.171 12.9815 164.776 13.2344C164.381 13.4872 164.069 13.858 163.838 14.3466C163.611 14.8324 163.498 15.4276 163.498 16.1321C163.498 16.8395 163.613 17.4375 163.843 17.9261C164.073 18.4148 164.388 18.7855 164.789 19.0384C165.189 19.2912 165.645 19.4176 166.157 19.4176C166.631 19.4176 167.044 19.321 167.397 19.1278C167.752 18.9347 168.026 18.6619 168.219 18.3097C168.415 17.9545 168.513 17.5369 168.513 17.0568L168.854 17.1207H166.357V16.0341H169.787V17.027C169.787 17.7599 169.631 18.3963 169.319 18.9361C169.009 19.473 168.58 19.8878 168.032 20.1804C167.486 20.473 166.861 20.6193 166.157 20.6193C165.367 20.6193 164.674 20.4375 164.077 20.0739C163.483 19.7102 163.02 19.1946 162.688 18.527C162.355 17.8565 162.189 17.0611 162.189 16.1406C162.189 15.4446 162.286 14.8196 162.479 14.2656C162.672 13.7116 162.944 13.2415 163.293 12.8551C163.645 12.4659 164.059 12.169 164.533 11.9645C165.01 11.7571 165.532 11.6534 166.097 11.6534C166.569 11.6534 167.007 11.723 167.414 11.8622C167.823 12.0014 168.186 12.1989 168.505 12.4545C168.826 12.7102 169.091 13.0142 169.301 13.3665C169.512 13.7159 169.654 14.1037 169.728 14.5298H168.377ZM177.365 14.5298C177.283 14.2713 177.172 14.0398 177.033 13.8352C176.896 13.6278 176.733 13.4517 176.543 13.3068C176.352 13.1591 176.135 13.0469 175.891 12.9702C175.649 12.8935 175.384 12.8551 175.094 12.8551C174.602 12.8551 174.159 12.9815 173.764 13.2344C173.369 13.4872 173.057 13.858 172.827 14.3466C172.599 14.8324 172.486 15.4276 172.486 16.1321C172.486 16.8395 172.601 17.4375 172.831 17.9261C173.061 18.4148 173.376 18.7855 173.777 19.0384C174.178 19.2912 174.634 19.4176 175.145 19.4176C175.619 19.4176 176.033 19.321 176.385 19.1278C176.74 18.9347 177.014 18.6619 177.207 18.3097C177.403 17.9545 177.501 17.5369 177.501 17.0568L177.842 17.1207H175.345V16.0341H178.776V17.027C178.776 17.7599 178.619 18.3963 178.307 18.9361C177.997 19.473 177.568 19.8878 177.02 20.1804C176.474 20.473 175.849 20.6193 175.145 20.6193C174.355 20.6193 173.662 20.4375 173.065 20.0739C172.472 19.7102 172.009 19.1946 171.676 18.527C171.344 17.8565 171.178 17.0611 171.178 16.1406C171.178 15.4446 171.274 14.8196 171.467 14.2656C171.661 13.7116 171.932 13.2415 172.281 12.8551C172.634 12.4659 173.047 12.169 173.521 11.9645C173.999 11.7571 174.52 11.6534 175.085 11.6534C175.557 11.6534 175.996 11.723 176.402 11.8622C176.811 12.0014 177.175 12.1989 177.493 12.4545C177.814 12.7102 178.08 13.0142 178.29 13.3665C178.5 13.7159 178.642 14.1037 178.716 14.5298H177.365Z" fill="#0D0C0C"/>
<path d="M193.842 11.7727L195.93 15.1861H195.998L198.086 11.7727H199.612L196.893 16.1364L199.629 20.5H198.095L195.998 17.1335H195.93L193.833 20.5H192.299L195.082 16.1364L192.316 11.7727H193.842ZM206.59 14.5298C206.507 14.2713 206.396 14.0398 206.257 13.8352C206.121 13.6278 205.958 13.4517 205.767 13.3068C205.577 13.1591 205.36 13.0469 205.115 12.9702C204.874 12.8935 204.608 12.8551 204.318 12.8551C203.827 12.8551 203.384 12.9815 202.989 13.2344C202.594 13.4872 202.281 13.858 202.051 14.3466C201.824 14.8324 201.71 15.4276 201.71 16.1321C201.71 16.8395 201.825 17.4375 202.056 17.9261C202.286 18.4148 202.601 18.7855 203.002 19.0384C203.402 19.2912 203.858 19.4176 204.369 19.4176C204.844 19.4176 205.257 19.321 205.61 19.1278C205.965 18.9347 206.239 18.6619 206.432 18.3097C206.628 17.9545 206.726 17.5369 206.726 17.0568L207.067 17.1207H204.57V16.0341H208V17.027C208 17.7599 207.844 18.3963 207.531 18.9361C207.222 19.473 206.793 19.8878 206.244 20.1804C205.699 20.473 205.074 20.6193 204.369 20.6193C203.58 20.6193 202.887 20.4375 202.29 20.0739C201.696 19.7102 201.233 19.1946 200.901 18.527C200.568 17.8565 200.402 17.0611 200.402 16.1406C200.402 15.4446 200.499 14.8196 200.692 14.2656C200.885 13.7116 201.156 13.2415 201.506 12.8551C201.858 12.4659 202.271 12.169 202.746 11.9645C203.223 11.7571 203.744 11.6534 204.31 11.6534C204.781 11.6534 205.22 11.723 205.627 11.8622C206.036 12.0014 206.399 12.1989 206.718 12.4545C207.039 12.7102 207.304 13.0142 207.514 13.3665C207.725 13.7159 207.867 14.1037 207.941 14.5298H206.59ZM215.578 14.5298C215.496 14.2713 215.385 14.0398 215.246 13.8352C215.109 13.6278 214.946 13.4517 214.756 13.3068C214.565 13.1591 214.348 13.0469 214.104 12.9702C213.862 12.8935 213.596 12.8551 213.307 12.8551C212.815 12.8551 212.372 12.9815 211.977 13.2344C211.582 13.4872 211.27 13.858 211.04 14.3466C210.812 14.8324 210.699 15.4276 210.699 16.1321C210.699 16.8395 210.814 17.4375 211.044 17.9261C211.274 18.4148 211.589 18.7855 211.99 19.0384C212.39 19.2912 212.846 19.4176 213.358 19.4176C213.832 19.4176 214.246 19.321 214.598 19.1278C214.953 18.9347 215.227 18.6619 215.42 18.3097C215.616 17.9545 215.714 17.5369 215.714 17.0568L216.055 17.1207H213.558V16.0341H216.988V17.027C216.988 17.7599 216.832 18.3963 216.52 18.9361C216.21 19.473 215.781 19.8878 215.233 20.1804C214.687 20.473 214.062 20.6193 213.358 20.6193C212.568 20.6193 211.875 20.4375 211.278 20.0739C210.684 19.7102 210.221 19.1946 209.889 18.527C209.557 17.8565 209.39 17.0611 209.39 16.1406C209.39 15.4446 209.487 14.8196 209.68 14.2656C209.873 13.7116 210.145 13.2415 210.494 12.8551C210.846 12.4659 211.26 12.169 211.734 11.9645C212.211 11.7571 212.733 11.6534 213.298 11.6534C213.77 11.6534 214.209 11.723 214.615 11.8622C215.024 12.0014 215.388 12.1989 215.706 12.4545C216.027 12.7102 216.292 13.0142 216.503 13.3665C216.713 13.7159 216.855 14.1037 216.929 14.5298H215.578Z" fill="#0D0C0C"/>
</svg>
