<svg width="153" height="22" viewBox="0 0 153 22" fill="none" xmlns="http://www.w3.org/2000/svg">
<path d="M7.63568 14.2327V6.95994H10.228C10.7938 6.95994 11.2626 7.06292 11.6343 7.26889C12.0059 7.47485 12.2841 7.75658 12.4688 8.11406C12.6534 8.46917 12.7458 8.86927 12.7458 9.31434C12.7458 9.76179 12.6522 10.1642 12.4652 10.5217C12.2806 10.8768 12.0012 11.1586 11.6272 11.3669C11.2555 11.5729 10.7879 11.6758 10.2245 11.6758H8.44178V10.7455H10.125C10.4825 10.7455 10.7725 10.6839 10.9951 10.5608C11.2176 10.4353 11.3809 10.2649 11.4851 10.0494C11.5893 9.83399 11.6414 9.58896 11.6414 9.31434C11.6414 9.03972 11.5893 8.79588 11.4851 8.58281C11.3809 8.36974 11.2164 8.20284 10.9915 8.0821C10.769 7.96136 10.4754 7.90099 10.1108 7.90099H8.73298V14.2327H7.63568ZM14.0322 14.2327V6.95994H16.6245C17.1903 6.95994 17.6591 7.06292 18.0307 7.26889C18.4024 7.47485 18.6806 7.75658 18.8653 8.11406C19.0499 8.46917 19.1422 8.86927 19.1422 9.31434C19.1422 9.76179 19.0487 10.1642 18.8617 10.5217C18.677 10.8768 18.3977 11.1586 18.0236 11.3669C17.652 11.5729 17.1844 11.6758 16.6209 11.6758H14.8383V10.7455H16.5215C16.879 10.7455 17.169 10.6839 17.3915 10.5608C17.6141 10.4353 17.7774 10.2649 17.8816 10.0494C17.9858 9.83399 18.0378 9.58896 18.0378 9.31434C18.0378 9.03972 17.9858 8.79588 17.8816 8.58281C17.7774 8.36974 17.6129 8.20284 17.388 8.0821C17.1654 7.96136 16.8719 7.90099 16.5073 7.90099H15.1295V14.2327H14.0322Z" fill="#0D0C0C"/>
<path d="M36.1673 14.2327V6.95994H38.7596C39.3254 6.95994 39.7942 7.06292 40.1659 7.26889C40.5376 7.47485 40.8157 7.75658 41.0004 8.11406C41.185 8.46917 41.2774 8.86927 41.2774 9.31434C41.2774 9.76179 41.1839 10.1642 40.9968 10.5217C40.8122 10.8768 40.5328 11.1586 40.1588 11.3669C39.7871 11.5729 39.3195 11.6758 38.7561 11.6758H36.9734V10.7455H38.6566C39.0141 10.7455 39.3041 10.6839 39.5267 10.5608C39.7492 10.4353 39.9126 10.2649 40.0167 10.0494C40.1209 9.83399 40.173 9.58896 40.173 9.31434C40.173 9.03972 40.1209 8.79588 40.0167 8.58281C39.9126 8.36974 39.748 8.20284 39.5231 8.0821C39.3006 7.96136 39.007 7.90099 38.6424 7.90099H37.2646V14.2327H36.1673Z" fill="#0D0C0C"/>
<path d="M60.2115 6.95994H61.5432L63.8585 12.6133H63.9437L66.2591 6.95994H67.5907V14.2327H66.5467V8.96988H66.4792L64.3344 14.222H63.4679L61.323 8.96633H61.2555V14.2327H60.2115V6.95994Z" fill="#0D0C0C"/>
<path d="M91.2089 9.25752C91.1403 9.04209 91.0479 8.84914 90.9319 8.67869C90.8183 8.50587 90.6822 8.35909 90.5235 8.23835C90.3649 8.11524 90.1838 8.02173 89.9802 7.95781C89.779 7.89389 89.5576 7.86193 89.3162 7.86193C88.9066 7.86193 88.5373 7.96728 88.2082 8.17798C87.8791 8.38868 87.6187 8.69763 87.427 9.10482C87.2376 9.50965 87.1429 10.0056 87.1429 10.5928C87.1429 11.1822 87.2387 11.6806 87.4305 12.0878C87.6223 12.495 87.8851 12.8039 88.2189 13.0146C88.5527 13.2253 88.9326 13.3307 89.3588 13.3307C89.7541 13.3307 90.0986 13.2502 90.3922 13.0892C90.6881 12.9282 90.9165 12.7009 91.0775 12.4074C91.2409 12.1115 91.3226 11.7634 91.3226 11.3633L91.6066 11.4166H89.5257V10.5111H92.3843V11.3385C92.3843 11.9493 92.2541 12.4796 91.9937 12.9294C91.7357 13.3768 91.3782 13.7225 90.9213 13.9663C90.4667 14.2102 89.9459 14.3321 89.3588 14.3321C88.7006 14.3321 88.123 14.1806 87.6258 13.8776C87.131 13.5745 86.7451 13.1448 86.4682 12.5885C86.1912 12.0298 86.0527 11.3669 86.0527 10.5999C86.0527 10.0198 86.1332 9.499 86.2941 9.03735C86.4551 8.57571 86.6812 8.1839 86.9724 7.86193C87.266 7.53759 87.6104 7.29019 88.0058 7.11974C88.4035 6.94692 88.8379 6.86051 89.3091 6.86051C89.7021 6.86051 90.0678 6.91851 90.4064 7.03451C90.7473 7.15052 91.0503 7.31505 91.3155 7.52812C91.583 7.74119 91.8043 7.9945 91.9795 8.28806C92.1547 8.57926 92.2731 8.90241 92.3346 9.25752H91.2089Z" fill="#0D0C0C"/>
<path d="M112.797 9.25752C112.729 9.04209 112.636 8.84914 112.52 8.67869C112.407 8.50587 112.27 8.35909 112.112 8.23835C111.953 8.11524 111.772 8.02173 111.568 7.95781C111.367 7.89389 111.146 7.86193 110.904 7.86193C110.495 7.86193 110.126 7.96728 109.796 8.17798C109.467 8.38868 109.207 8.69763 109.015 9.10482C108.826 9.50965 108.731 10.0056 108.731 10.5928C108.731 11.1822 108.827 11.6806 109.019 12.0878C109.211 12.495 109.473 12.8039 109.807 13.0146C110.141 13.2253 110.521 13.3307 110.947 13.3307C111.342 13.3307 111.687 13.2502 111.98 13.0892C112.276 12.9282 112.505 12.7009 112.666 12.4074C112.829 12.1115 112.911 11.7634 112.911 11.3633L113.195 11.4166H111.114V10.5111H113.973V11.3385C113.973 11.9493 113.842 12.4796 113.582 12.9294C113.324 13.3768 112.966 13.7225 112.51 13.9663C112.055 14.2102 111.534 14.3321 110.947 14.3321C110.289 14.3321 109.711 14.1806 109.214 13.8776C108.719 13.5745 108.333 13.1448 108.056 12.5885C107.779 12.0298 107.641 11.3669 107.641 10.5999C107.641 10.0198 107.721 9.499 107.882 9.03735C108.043 8.57571 108.269 8.1839 108.561 7.86193C108.854 7.53759 109.199 7.29019 109.594 7.11974C109.992 6.94692 110.426 6.86051 110.897 6.86051C111.29 6.86051 111.656 6.91851 111.995 7.03451C112.336 7.15052 112.639 7.31505 112.904 7.52812C113.171 7.74119 113.393 7.9945 113.568 8.28806C113.743 8.57926 113.861 8.90241 113.923 9.25752H112.797ZM120.287 9.25752C120.219 9.04209 120.126 8.84914 120.01 8.67869C119.897 8.50587 119.761 8.35909 119.602 8.23835C119.443 8.11524 119.262 8.02173 119.059 7.95781C118.857 7.89389 118.636 7.86193 118.395 7.86193C117.985 7.86193 117.616 7.96728 117.287 8.17798C116.958 8.38868 116.697 8.69763 116.505 9.10482C116.316 9.50965 116.221 10.0056 116.221 10.5928C116.221 11.1822 116.317 11.6806 116.509 12.0878C116.701 12.495 116.964 12.8039 117.297 13.0146C117.631 13.2253 118.011 13.3307 118.437 13.3307C118.833 13.3307 119.177 13.2502 119.471 13.0892C119.767 12.9282 119.995 12.7009 120.156 12.4074C120.319 12.1115 120.401 11.7634 120.401 11.3633L120.685 11.4166H118.604V10.5111H121.463V11.3385C121.463 11.9493 121.333 12.4796 121.072 12.9294C120.814 13.3768 120.457 13.7225 120 13.9663C119.545 14.2102 119.024 14.3321 118.437 14.3321C117.779 14.3321 117.201 14.1806 116.704 13.8776C116.21 13.5745 115.824 13.1448 115.547 12.5885C115.27 12.0298 115.131 11.3669 115.131 10.5999C115.131 10.0198 115.212 9.499 115.373 9.03735C115.534 8.57571 115.76 8.1839 116.051 7.86193C116.344 7.53759 116.689 7.29019 117.084 7.11974C117.482 6.94692 117.916 6.86051 118.388 6.86051C118.781 6.86051 119.146 6.91851 119.485 7.03451C119.826 7.15052 120.129 7.31505 120.394 7.52812C120.661 7.74119 120.883 7.9945 121.058 8.28806C121.233 8.57926 121.352 8.90241 121.413 9.25752H120.287Z" fill="#0D0C0C"/>
<path d="M130.74 6.95994L132.48 9.8044H132.536L134.277 6.95994H135.548L133.282 10.5963L135.562 14.2327H134.284L132.536 11.4273H132.48L130.733 14.2327H129.454L131.773 10.5963L129.468 6.95994H130.74ZM141.363 9.25752C141.294 9.04209 141.202 8.84914 141.086 8.67869C140.972 8.50587 140.836 8.35909 140.677 8.23835C140.519 8.11524 140.338 8.02173 140.134 7.95781C139.933 7.89389 139.712 7.86193 139.47 7.86193C139.061 7.86193 138.691 7.96728 138.362 8.17798C138.033 8.38868 137.773 8.69763 137.581 9.10482C137.391 9.50965 137.297 10.0056 137.297 10.5928C137.297 11.1822 137.393 11.6806 137.584 12.0878C137.776 12.495 138.039 12.8039 138.373 13.0146C138.707 13.2253 139.087 13.3307 139.513 13.3307C139.908 13.3307 140.253 13.2502 140.546 13.0892C140.842 12.9282 141.07 12.7009 141.231 12.4074C141.395 12.1115 141.476 11.7634 141.476 11.3633L141.761 11.4166H139.68V10.5111H142.538V11.3385C142.538 11.9493 142.408 12.4796 142.148 12.9294C141.89 13.3768 141.532 13.7225 141.075 13.9663C140.621 14.2102 140.1 14.3321 139.513 14.3321C138.855 14.3321 138.277 14.1806 137.78 13.8776C137.285 13.5745 136.899 13.1448 136.622 12.5885C136.345 12.0298 136.207 11.3669 136.207 10.5999C136.207 10.0198 136.287 9.499 136.448 9.03735C136.609 8.57571 136.835 8.1839 137.126 7.86193C137.42 7.53759 137.764 7.29019 138.16 7.11974C138.557 6.94692 138.992 6.86051 139.463 6.86051C139.856 6.86051 140.222 6.91851 140.56 7.03451C140.901 7.15052 141.204 7.31505 141.469 7.52812C141.737 7.74119 141.958 7.9945 142.133 8.28806C142.309 8.57926 142.427 8.90241 142.489 9.25752H141.363ZM148.853 9.25752C148.784 9.04209 148.692 8.84914 148.576 8.67869C148.462 8.50587 148.326 8.35909 148.168 8.23835C148.009 8.11524 147.828 8.02173 147.624 7.95781C147.423 7.89389 147.202 7.86193 146.96 7.86193C146.551 7.86193 146.181 7.96728 145.852 8.17798C145.523 8.38868 145.263 8.69763 145.071 9.10482C144.882 9.50965 144.787 10.0056 144.787 10.5928C144.787 11.1822 144.883 11.6806 145.075 12.0878C145.266 12.495 145.529 12.8039 145.863 13.0146C146.197 13.2253 146.577 13.3307 147.003 13.3307C147.398 13.3307 147.743 13.2502 148.036 13.0892C148.332 12.9282 148.561 12.7009 148.722 12.4074C148.885 12.1115 148.967 11.7634 148.967 11.3633L149.251 11.4166H147.17V10.5111H150.029V11.3385C150.029 11.9493 149.898 12.4796 149.638 12.9294C149.38 13.3768 149.022 13.7225 148.565 13.9663C148.111 14.2102 147.59 14.3321 147.003 14.3321C146.345 14.3321 145.767 14.1806 145.27 13.8776C144.775 13.5745 144.389 13.1448 144.112 12.5885C143.835 12.0298 143.697 11.3669 143.697 10.5999C143.697 10.0198 143.777 9.499 143.938 9.03735C144.099 8.57571 144.325 8.1839 144.617 7.86193C144.91 7.53759 145.255 7.29019 145.65 7.11974C146.048 6.94692 146.482 6.86051 146.953 6.86051C147.346 6.86051 147.712 6.91851 148.051 7.03451C148.391 7.15052 148.694 7.31505 148.96 7.52812C149.227 7.74119 149.448 7.9945 149.624 8.28806C149.799 8.57926 149.917 8.90241 149.979 9.25752H148.853Z" fill="#0D0C0C"/>
</svg>
